<?xml version="1.0" standalone="no"?><!DOCTYPE svg PUBLIC "-//W3C//DTD SVG 1.1//EN" "http://www.w3.org/Graphics/SVG/1.1/DTD/svg11.dtd"><svg t="1756017629826" class="icon" viewBox="0 0 1024 1024" version="1.1" xmlns="http://www.w3.org/2000/svg" p-id="20729" xmlns:xlink="http://www.w3.org/1999/xlink" width="512" height="512"><path d="M133.361165 441.679733c51.309012-10.957171 69.505275-51.839253 72.161475-74.272443l0.167886-184.367599c0-30.680199 33.683163-39.304152 38.214491-39.364711l-0.005596-49.07053c-29.42505 0-87.105742 26.6969-87.105742 88.435241l0 179.55686c-0.951955 4.74978-6.629505 25.321232-33.610212 31.080927L133.361165 441.679733zM328.939163 441.679733c51.317007-10.957171 69.506275-51.839253 72.169869-74.272443l0.16249-184.367599c0-30.680199 33.677567-39.304152 38.221086-39.364711l-0.013991-49.07053c-29.418454 0-87.098147 26.6969-87.098147 88.435241l0 179.55686c-0.959749 4.74978-6.629505 25.321232-33.610612 31.080927L328.939163 441.679733zM231.147066 441.679733c51.317007-10.957171 69.503677-51.839253 72.16747-74.272443l0.168486-184.367599c0-30.680199 33.674169-39.304152 38.213092-39.364711l-0.004997-49.07053c-29.42505 0-87.102744 26.6969-87.102744 88.435241l0 179.55686c-0.956751 4.74978-6.629505 25.321232-33.610212 31.080927L231.147066 441.679733zM433.879614 266.365996 939.127256 266.365996l0 49.07013L433.879614 315.436126 433.879614 266.365996zM433.879614 168.214742 939.127256 168.214742l0 49.073128L433.879614 217.287871 433.879614 168.214742zM59.015372 462.662507l0 156.745327c0 175.328727 155.759995 237.898105 211.876748 254.754676l0 62.892159 472.656339 0L743.548458 874.308211c56.41655-16.613736 211.885741-79.208097 211.880745-264.414127l0-147.231777L59.015372 462.662307zM906.528558 609.894284c0 183.694055-183.970868 219.77839-191.751393 221.215416l-20.123356 3.606555 0 53.263687L319.786769 887.979942l-0.047568-52.91992-19.738617-3.881368c-7.841084-1.550948-192.096758-39.812807-192.096758-211.770819l0-25.875456 798.624533 0L906.528358 609.894284zM906.528558 560.808564 107.909022 560.808564 107.909022 511.730039l798.619536 0L906.528558 560.808564zM75.313721 266.365996l48.897248 0 0 49.07013L75.313721 315.436126 75.313721 266.365996zM75.313721 168.214742l48.897248 0 0 49.073128L75.313721 217.287871 75.313721 168.214742z" fill="#272636" p-id="20730"></path></svg>