<?xml version="1.0" standalone="no"?><!DOCTYPE svg PUBLIC "-//W3C//DTD SVG 1.1//EN" "http://www.w3.org/Graphics/SVG/1.1/DTD/svg11.dtd"><svg t="1756017403988" class="icon" viewBox="0 0 1024 1024" version="1.1" xmlns="http://www.w3.org/2000/svg" p-id="7939" xmlns:xlink="http://www.w3.org/1999/xlink" width="512" height="512"><path d="M657.9 805.6l-139-139c-38-38-38-99.7 0-137.7 36.6-36.6 101-36.7 137.7 0l1.2 1.3 0.1-0.2c39.1-39.1 100.9-39.1 138.8-1.1 38 38 38 99.7 0 137.7l-138.8 139z m-70.1-262.1c-14.6 0-28.2 5.6-38.5 15.9-21.2 21.2-21.2 55.7 0 76.9l108.6 108.6 108.6-108.6c21.2-21.2 21.2-55.7 0-76.9-21.2-21.2-55.7-21.2-77 0L657.9 596l-32.1-37.2c-10.2-9.9-23.6-15.3-38-15.3z" p-id="7940"></path><path d="M512 796.7c-5.5 0-11-2.1-15.2-6.3L235.3 528.8c-70.9-70.9-70.9-186.4 0-257.3 70.9-70.8 186.4-70.9 257.3 0L512 294.1l18.4-21.4c35.3-35.3 81-54.2 129.7-54.2 48.7 0 94.4 18.8 128.6 53.1C837 319.8 854 390.5 833.1 456c-3.6 11.2-15.6 17.4-27 13.9-11.3-3.6-17.5-15.7-13.9-27 16-50.1 3.1-104.1-33.7-140.9-54.2-54.1-142.4-54.2-196.5 0l-50 57.9-51-59.1c-53-53-141.2-53-195.4 1.2-54.1 54.2-54.1 142.3 0 196.5L527.2 760c8.4 8.4 8.4 22 0 30.4-4.2 4.2-9.7 6.3-15.2 6.3z" p-id="7941"></path></svg>