<?xml version="1.0" standalone="no"?><!DOCTYPE svg PUBLIC "-//W3C//DTD SVG 1.1//EN" "http://www.w3.org/Graphics/SVG/1.1/DTD/svg11.dtd"><svg t="1756017566653" class="icon" viewBox="0 0 1024 1024" version="1.1" xmlns="http://www.w3.org/2000/svg" p-id="15838" xmlns:xlink="http://www.w3.org/1999/xlink" width="512" height="512"><path d="M593.464889 266.467556a104.675556 104.675556 0 1 1-209.464889 2.332444 104.675556 104.675556 0 0 1 209.464889-2.275556z m-53.304889 0a51.427556 51.427556 0 1 0-102.855111 0 51.427556 51.427556 0 0 0 102.855111 0z m323.015111 501.532444H152.462222a53.304889 53.304889 0 0 1-48.64-30.72 51.882667 51.882667 0 0 1 7.68-56.547556l220.16-256a54.044444 54.044444 0 0 1 89.088 10.922667l48.924445 99.612445 178.005333-206.904889c13.653333-15.530667 34.133333-23.381333 54.670222-20.935111 20.138667 2.844444 37.546667 15.530667 46.592 33.735111l168.220445 339.569777c9.557333 18.773333 8.419556 41.187556-3.015111 58.88a61.667556 61.667556 0 0 1-50.972445 28.387556z m-168.277333-402.602667a1.877333 1.877333 0 0 0-1.820445 0l-207.644444 242.232889-85.162667 98.929778v2.275556a1.877333 1.877333 0 0 0 1.877334 1.194666h461.027555c0.568889 0.284444 1.251556 0.284444 1.877333 0v-2.048l-168.504888-339.797333a1.649778 1.649778 0 0 0-1.649778-2.104889v-0.682667z m-267.150222 219.022223l-55.409778-113.834667-207.815111 239.502222h175.957333v-15.644444V687.957333a38.855111 38.855111 0 0 0 1.877333-4.664889 30.208 30.208 0 0 0 1.820445-3.982222v-1.365333l2.104889-3.015111v-1.422222l3.299555-4.209778 78.165334-84.935111z m-298.837334 217.543111h768a29.354667 29.354667 0 1 1 0 58.424889h-768a29.354667 29.354667 0 1 1 0-58.424889z" fill="#333333" p-id="15839"></path></svg>